# xmcd
#
# Track frame offsets: 
#        150
#        18854
#        31726
#        47720
#        58380
#        76061
#        93340
#        105584
#        117819
#        132184
#        147744
#        163269
#        178082
#
# Disc length: 2547 seconds
#
# Revision: 0
# Processed by: cddbd v1.5.2PL0 Copyright (c) Steve Scherf et al.
# Submitted via: ExactAudioCopy v0.95b4
#
DISCID=ab09f10d
DTITLE=Ange - Release
DYEAR=2004
DGENRE=Country
TTITLE0=Bigger Picture
TTITLE1=Solo of the Sun
TTITLE2=I Wonder
TTITLE3=Lady
TTITLE4=A Simple Life
TTITLE5=Just Too Cool
TTITLE6=Miracle of Love
TTITLE7=Please
TTITLE8=Here I am Again
TTITLE9=I Don't Know
TTITLE10=A Plane Goes By
TTITLE11=My Home
TTITLE12=(untitled bonus track)
EXTD=
EXTT0=
EXTT1=
EXTT2=
EXTT3=
EXTT4=
EXTT5=
EXTT6=
EXTT7=
EXTT8=
EXTT9=
EXTT10=
EXTT11=
EXTT12=
PLAYORDER=
